# xmcd CD database file
#
# Track frame offsets:
#	150
#	8332
#	25690
#	41922
#	46890
#	57420
#	67492
#	80512
#	94700
#	110020
#	124670
#	141632
#	153532
#
# Disc length: 2181 seconds
#
# Revision: 0
# Processed by: cddbd v1.5.1PL0 Copyright (c) Steve Scherf et al.
# Submitted via: CDex 1.50
#
DISCID=b508830d
DTITLE=Ran Blake - Wende
DYEAR=1976
DGENRE=Jazz
TTITLE0=Field Cry
TTITLE1=Wende
TTITLE2=Thursday
TTITLE3=Aftermath
TTITLE4=Three Personalities
TTITLE5=East Wind
TTITLE6=How Bout That - tk 2
TTITLE7=Jim Crow
TTITLE8=Airline
TTITLE9=Blues for Wheatleigh
TTITLE10=Silver Fox
TTITLE11=Jinxey's
TTITLE12=How Bout That - tk 3
EXTD=YEAR: 1976
EXTT0=
EXTT1=
EXTT2=
EXTT3=
EXTT4=
EXTT5=
EXTT6=
EXTT7=
EXTT8=
EXTT9=
EXTT10=
EXTT11=
EXTT12=
PLAYORDER=
